<svg width="30" height="30" viewBox="0 0 30 30" fill="none" xmlns="http://www.w3.org/2000/svg">
<path d="M8.33333 0C3.73167 0 0 3.73167 0 8.33333V21.6667C0 26.2683 3.73167 30 8.33333 30H21.6667C26.2683 30 30 26.2683 30 21.6667V8.33333C30 3.73167 26.2683 0 21.6667 0H8.33333ZM25 3.33333C25.92 3.33333 26.6667 4.08 26.6667 5C26.6667 5.92 25.92 6.66667 25 6.66667C24.08 6.66667 23.3333 5.92 23.3333 5C23.3333 4.08 24.08 3.33333 25 3.33333ZM15 6.66667C19.6017 6.66667 23.3333 10.3983 23.3333 15C23.3333 19.6017 19.6017 23.3333 15 23.3333C10.3983 23.3333 6.66667 19.6017 6.66667 15C6.66667 10.3983 10.3983 6.66667 15 6.66667ZM15 10C13.6739 10 12.4021 10.5268 11.4645 11.4645C10.5268 12.4021 10 13.6739 10 15C10 16.3261 10.5268 17.5979 11.4645 18.5355C12.4021 19.4732 13.6739 20 15 20C16.3261 20 17.5979 19.4732 18.5355 18.5355C19.4732 17.5979 20 16.3261 20 15C20 13.6739 19.4732 12.4021 18.5355 11.4645C17.5979 10.5268 16.3261 10 15 10Z" fill="#355264"/>
</svg>
