<svg width="457" height="106" viewBox="0 0 457 106" fill="none" xmlns="http://www.w3.org/2000/svg">
<rect width="457" height="106"/>
<g filter="url(#filter0_d)">
<path d="M52.3335 4.46537C47.7205 1.48846 42.185 0 35.7109 0H0V99.2712H22.1423V63.8635H35.695C42.1691 63.8635 47.7205 62.3575 52.3335 59.3631C56.9465 56.3687 60.4619 52.4462 62.8798 47.5781C65.2976 42.7274 66.5065 37.5091 66.5065 31.923C66.5065 26.3019 65.2976 21.0485 62.8957 16.1979C60.4619 11.3473 56.9465 7.44228 52.3335 4.46537ZM43.203 36.8962C42.4395 38.4197 41.326 39.6279 39.8626 40.556C38.3991 41.4841 36.6812 41.9394 34.7406 41.9394H22.1423V21.9241H34.7406C36.6812 21.9241 38.3832 22.3794 39.8626 23.3075C41.326 24.2356 42.4395 25.4613 43.203 27.0023C43.9665 28.5433 44.3483 30.1894 44.3483 31.958C44.3483 33.7267 43.9665 35.3727 43.203 36.8962Z" fill="#FDDB00"/>
<path d="M100.213 0H78.0708V99.2712H138.071V77.5573H100.213V0Z" fill="#FDDB00"/>
<path d="M180.877 0L148.093 99.2712H171.285L203.449 84.5093L207.664 99.2712H230.792L198.008 0H180.877Z" fill="#FDDB00"/>
<path d="M220.867 21.7139H243.073V99.2712H265.231V21.7139H287.421V0H220.867V21.7139Z" fill="#FDDB00"/>
<path d="M298.015 99.2712H359.32V77.5573H320.157V60.0636H353.625V38.3321H320.157V21.7139H359.32V0H298.015V99.2712Z" fill="#FDDB00"/>
<path d="M418.127 0H400.996L368.212 99.2712H391.404L423.568 84.5093L427.767 99.2712H450.896L418.127 0Z" fill="#FDDB00"/>
</g>
<defs>
<filter id="filter0_d" x="0" y="0" width="456.896" height="105.271" filterUnits="userSpaceOnUse" color-interpolation-filters="sRGB">
<feFlood flood-opacity="0" result="BackgroundImageFix"/>
<feColorMatrix in="SourceAlpha" type="matrix" values="0 0 0 0 0 0 0 0 0 0 0 0 0 0 0 0 0 0 127 0"/>
<feOffset dx="3" dy="3"/>
<feGaussianBlur stdDeviation="1.5"/>
<feColorMatrix type="matrix" values="0 0 0 0 0 0 0 0 0 0 0 0 0 0 0 0 0 0 0.3 0"/>
<feBlend mode="normal" in2="BackgroundImageFix" result="effect1_dropShadow"/>
<feBlend mode="normal" in="SourceGraphic" in2="effect1_dropShadow" result="shape"/>
</filter>
</defs>
</svg>
